<svg xmlns="http://www.w3.org/2000/svg" xmlns:xlink="http://www.w3.org/1999/xlink" xmlns:lucid="lucid" width="2325" height="1044"><g transform="translate(-105 108)" lucid:page-tab-id="0_0"><path d="M0-1500h3500v2500H0z" fill="#fff"/><path d="M593 162.38a30 30 0 0 1 30-30h260a30 30 0 0 1 30 30V790a30 30 0 0 1-30 30H623a30 30 0 0 1-30-30z" fill="#fff"/><path d="M601.06 142.02l.73-.85.84-.73m9.43-5.9l1.66-.7 4.58-1.1 4.7-.36h15.48m15.47 0h3.1m15.47 0h30.96m15.47 0h3.1m15.47 0h30.96m15.47 0h3.1m15.47 0h30.96m15.47 0h3.1m15.47 0H883l4.7.37 4.57 1.1 1.66.7m9.43 5.9l.85.72.74.85m5.9 9.43l.7 1.66 1.1 4.6.36 4.68v14.94m0 14.95v3m0 14.93v29.9m0 14.93v3m0 14.93v29.9m0 14.93v2.98m0 14.94v29.9m0 14.93v3m0 14.94v29.87m0 14.94v3m0 14.95v29.88m0 14.95v3m0 14.93v29.9m0 14.94v3m0 14.93v29.9m0 14.93v3m0 14.93v29.9m0 14.93v3m0 14.93v29.88m0 14.95v2.98m0 14.96V790l-.37 4.7-1.1 4.57-.68 1.66m-5.9 9.43l-.74.85-.84.74m-9.43 5.9l-1.66.7-4.58 1.1-4.7.36h-15.48m-15.47 0h-3.1m-15.47 0h-30.96m-15.47 0h-3.1m-15.47 0h-30.96m-15.47 0h-3.1m-15.47 0h-30.96m-15.47 0h-3.1m-15.47 0H623l-4.7-.37-4.57-1.1-1.66-.68m-9.43-5.9l-.85-.74-.74-.84m-5.9-9.43l-.7-1.66-1.1-4.58-.36-4.7v-14.94m0-14.95v-2.98m0-14.94V712.3m0-14.95v-3m0-14.93v-29.9m0-14.93v-3m0-14.94v-29.9m0-14.93v-3m0-14.93V524m0-14.93v-3m0-14.94v-29.88m0-14.95v-3m0-14.93V398.5m0-14.96v-3m0-14.93v-29.88m0-14.94v-3m0-14.93v-29.9m0-14.93v-3m0-14.93v-29.9m0-14.94v-3m0-14.94v-14.94l.37-4.7 1.1-4.57.68-1.65" stroke="#474747" stroke-width="3" fill="none"/><path d="M1736 237c16.58 0 30 13.43 30 30v440c0 16.57-13.42 30-30 30h-453.98c-16.57 0-30-13.43-30-30V267c0-16.57 13.43-30 30-30zM2156 396.5c16.58 0 30 13.43 30 30v121c0 16.57-13.42 30-30 30h-260c-16.56 0-30-13.43-30-30v-121c0-16.57 13.44-30 30-30z" stroke="#000" stroke-width="2" fill="#fff"/><path d="M372.66 469.24H360v-2.96l6.33-8.37 6.33 8.38v2.96zM440 469.24h-62v-2.96l31-8.37 31 8.38v2.96zM372.66 487.72H360v-2.95l6.33-8.37 6.33 8.37v2.95zM440 487.72h-62v-2.95l31-8.37 31 8.37v2.95zM372.66 506.22H360v-2.96l6.33-8.37 6.33 8.36v2.96zM440 506.22h-62v-2.96l31-8.37 31 8.36v2.96zM372.66 524.7H360v-2.96l6.33-8.37 6.33 8.37v2.96zM440 524.7h-62v-2.96l31-8.37 31 8.37v2.96z" fill="#19486f"/><path d="M378 454.95h62v11.33h-62v-11.33zM378 473.44h62v11.33h-62v-11.33zM378 491.92h62v11.33h-62v-11.33zM378 510.42h62v11.32h-62v-11.32zM360 454.95h12.66v11.33H360v-11.33zM360 473.44h12.66v11.33H360v-11.33zM360 491.92h12.66v11.33H360v-11.33zM360 510.42h12.66v11.32H360v-11.32z" fill="#2e73b8"/><path d="M752.9 338.16L804.33 309v-58.14l-51.45 29.07v58.23z" fill="#fff"/><path d="M701.55 308.98l51.38 29.12v-58.15l-51.38-29.04V309zM804 250.9L752.92 222l-51.05 28.9 51.05 28.87L804 250.9z" fill="#fff"/><path d="M752.93 278.06L801 250.9l-.04-.04-48.03 27.2zM704.9 250.86l-.06.03 48.1 27.16-48.05-27.2z" fill="#fff"/><path d="M804.2 249.04L752.9 220l-51.3 29.04-1.6.96v60l51.4 29.04 1.6.96 1.6-.96L806 310v-60zm-1.6 59.04l-48 27.24v-54.48l48.1-27.12zm-51.3 27.24l-48.12-27.24v-54.36l48.12 27.12zm-46.42-84.48l48-27.12 48.14 27.12-48.13 27.24-48.02-27.24z" fill="#444"/><path d="M753.14 311.33l27.63-15.64v-31.22l-27.63 15.6v31.25zM725.08 295.7l27.63 15.63v-31.25l-27.62-15.6v31.2zM780.48 264.06l-27.55-15.56-27.55 15.56 27.55 15.63 27.55-15.64z" fill="#ffd44f"/><path d="M752.93 278.1l24.77-14-.03-.04-24.74 14.02zM728.17 264.06l-.03.03 24.77 14v-.02l-24.73-14.02z" fill="#96bf3d"/><path d="M780.96 262.17l-28.02-15.8-28.07 15.8-1.6.94v33.7l28 15.86 1.67.94 1.6-.94 28.08-15.87V263.1zm-1.6 32.74l-24.82 14.06v-28.1l24.8-13.98zm-28.08 14.06l-24.8-14.05V266.9l24.8 13.98zm-23.1-44.9l24.76-14 24.75 14-24.76 14.05-24.8-13.98z" fill="#fff"/><use xlink:href="#a" transform="matrix(1,0,0,1,700,340) translate(20.735185185185195 23.288888888888884)"/><path d="M752.9 535.16L804.33 506v-58.14l-51.45 29.07v58.23z" fill="#fff"/><path d="M701.55 505.98l51.38 29.12v-58.15l-51.38-29.04V506zM804 447.9L752.92 419l-51.05 28.9 51.05 28.87L804 447.9z" fill="#fff"/><path d="M752.93 475.06L801 447.9l-.04-.04-48.03 27.2zM704.9 447.86l-.06.03 48.1 27.16-48.05-27.2z" fill="#fff"/><path d="M804.2 446.04L752.9 417l-51.3 29.04-1.6.96v60l51.4 29.04 1.6.96 1.6-.96L806 507v-60zm-1.6 59.04l-48 27.24v-54.48l48.1-27.12zm-51.3 27.24l-48.12-27.24v-54.36l48.12 27.12zm-46.42-84.48l48-27.12 48.14 27.12-48.13 27.24-48.02-27.24z" fill="#444"/><path d="M753.14 508.33l27.63-15.64v-31.22l-27.63 15.6v31.25zM725.08 492.7l27.63 15.63v-31.25l-27.62-15.6v31.2zM780.48 461.05l-27.55-15.56-27.55 15.55 27.55 15.63 27.55-15.63z" fill="#8cc64f"/><path d="M752.93 475.1l24.77-14-.03-.04-24.74 14.02zM728.17 461.06l-.03.03 24.77 14v-.02l-24.73-14.02z" fill="#96bf3d"/><path d="M780.96 459.17l-28.02-15.8-28.07 15.8-1.6.94v33.7l28 15.86 1.67.94 1.6-.94 28.08-15.87V460.1zm-1.6 32.74l-24.82 14.06v-28.1l24.8-13.98zm-28.08 14.06l-24.8-14.05V463.9l24.8 13.98zm-23.1-44.9l24.76-14 24.75 14-24.76 14.05-24.8-13.98z" fill="#fff"/><use xlink:href="#b" transform="matrix(1,0,0,1,700,537) translate(24.21234567901236 23.288888888888884)"/><path d="M752.9 732.16L804.33 703v-58.14l-51.45 29.07v58.23z" fill="#fff"/><path d="M701.55 702.98l51.38 29.12v-58.15l-51.38-29.04V703zM804 644.9L752.92 616l-51.05 28.9 51.05 28.87L804 644.9z" fill="#fff"/><path d="M752.93 672.06L801 644.9l-.04-.04-48.03 27.2zM704.9 644.86l-.06.03 48.1 27.16-48.05-27.2z" fill="#fff"/><path d="M804.2 643.04L752.9 614l-51.3 29.04-1.6.96v60l51.4 29.04 1.6.96 1.6-.96L806 704v-60zm-1.6 59.04l-48 27.24v-54.48l48.1-27.12zm-51.3 27.24l-48.12-27.24v-54.36l48.12 27.12zm-46.42-84.48l48-27.12 48.14 27.12-48.13 27.24-48.02-27.24z" fill="#444"/><path d="M753.14 705.33l27.63-15.65v-31.2l-27.63 15.6v31.25zM725.08 689.68l27.63 15.65v-31.25l-27.62-15.6v31.2zM780.48 658.06l-27.55-15.56-27.55 15.56 27.55 15.63 27.55-15.64z" fill="#cfcfcf"/><path d="M752.93 672.1l24.77-14-.03-.04-24.74 14.02zM728.17 658.06l-.03.03 24.77 14v-.02l-24.73-14.02z" fill="#96bf3d"/><path d="M780.96 656.17l-28.02-15.8-28.07 15.8-1.6.95v33.67l28 15.86 1.67.94 1.6-.94 28.08-15.87V657.1zm-1.6 32.74l-24.82 14.06v-28.1l24.8-13.98zm-28.08 14.06l-24.8-14.05V660.9l24.8 13.98zm-23.1-44.9l24.76-14 24.75 14-24.76 14.05-24.8-13.98z" fill="#fff"/><use xlink:href="#c" transform="matrix(1,0,0,1,700,734) translate(27.1638888888889 23.288888888888884)"/><path d="M720.02 149.28l57.83-21.96V83.54l-57.83 21.9v43.84z" fill="#342074"/><path d="M662.26 127.3l57.8 21.95v-43.82l-57.8-21.88v43.76zM777.74 83.5l-57.7-21.83-57.7 21.82 57.7 21.9 57.7-21.9z" fill="#342074"/><path d="M720.05 103.74l53.38-20.2-.06-.03-53.32 20.24zM666.75 83.5l-.1.03 53.4 20.2-53.3-20.22z" fill="#fff"/><path d="M777.72 81.83L720.05 60l-57.8 21.83-2.16.9v45.48l57.8 21.93 2.15.82 2.16-.82L780 128.2V82.75zm-2.16 44.65l-53.47 20.28V106.3l53.46-20.38zm-57.8 20.28l-53.35-20.28V86l53.5 20.3zm-51.07-63.3l53.35-20.1 53.36 20.1-53.35 20.3v-.02l-53.48-20.18z" fill="#fff"/><path d="M674.98 162.95l33.22-12.6V125.2l-33.22 12.58v25.17zM641.6 150.37l33.36 12.66v-25.3l-33.35-12.6v25.24zM708 125.1l-33.07-12.5-33.06 12.5 33.06 12.56L708 125.1z" fill="#fff"/><path d="M674.93 136.5l30-11.37h-.04l-29.97 11.36z" fill="#fff"/><path d="M644.96 125.12h-.03l30 11.37-29.97-11.38z" fill="#fff"/><path d="M708.2 123.9l-33.27-12.62-33.25 12.6-1.68.65v26.5l33.33 12.6 1.6.64 1.6-.63 33.34-12.6v-26.56zm-1.6 25.85l-30.06 11.45v-22.84l30.05-11.34zm-33.27 11.45l-30.05-11.45v-22.73l30.05 11.34zm-28.44-36.1l29.97-11.33 29.97 11.34-29.9 11.4-30.05-11.4z" fill="#444"/><path d="M710.48 165.04l19.1-7.24v-14.45l-19.1 7.24v14.44zM690.77 157.8l19.1 7.24V150.6l-19.1-7.25v14.45zM729.14 142.98l-18.97-7.17L691.2 143l18.97 7.2 18.97-7.2z" fill="#33385a"/><path d="M710.17 149.2l16.4-6.2v-.02l-16.4 6.23zM693.8 142.98l-.03.02 16.4 6.2L693.8 143z" fill="#fff"/><path d="M729.86 141.73l-19.66-7.45-19.7 7.45-1.68.62v16.22l19.7 7.48 1.63.62 1.62-.62 19.7-7.48v-16.22zm-1.62 15.58l-16.42 6.22v-12.5l16.42-6.2zm-36.13-12.46l16.43 6.2v12.45l-16.42-6.26zm1.67-1.85l16.43-6.22 16.38 6.2-16.43 6.2-16.42-6.2z" fill="#fff"/><use xlink:href="#d" transform="matrix(1,0,0,1,640,166.66666666666666) translate(12.254320987654346 16.177777777777774)"/><use xlink:href="#e" transform="matrix(1,0,0,1,640,166.66666666666666) translate(62.697530864197525 16.177777777777774)"/><path d="M440.5 487h243.12" stroke="#3a414a" fill="none"/><path d="M440.5 487.48h-.5v-.96h.5z" stroke="#3a414a" stroke-width=".05" fill="#3a414a"/><path d="M698.38 487l-14.26 4.63v-9.26z" stroke="#3a414a" fill="#3a414a"/><path d="M400 454.45V296a6 6 0 0 1 6-6h277.62" stroke="#3a414a" fill="none"/><path d="M400.48 454.95h-.96v-.5h.96z" stroke="#3a414a" stroke-width=".05" fill="#3a414a"/><path d="M698.38 290l-14.26 4.63v-9.26z" stroke="#3a414a" fill="#3a414a"/><path d="M1093.15 278.1v-13.62l-5.1 2.5 5.1 11.1zM1105.6 268.56l20.92-20.9-33.36 16.8 12.45 4.1zM1093.15 280.72l-4.23 11.42 9.5-9.5 6 11.7H1134l-40.85-13.62z" fill="#c9ebec"/><path d="M1093.16 264.48v13.6H1134l-28.38-9.5-12.46-4.1z" fill="#00868c"/><path d="M1093.16 278.1v2.62l40.83 13.6V278.1h-40.84z" fill="#00b3bb"/><path d="M1076.04 299.16h13.45l-4.1 12.43 20.93 20.92-19.33-38.48-10.96 5.12z" fill="#c9ebec"/><path d="M1088.92 292.13l28.82 28.98-13.32-26.77-6-11.7-9.5 9.5z" fill="#00868c"/><path d="M1088.92 292.14l-1.9 1.9 19.32 38.48 11.4-11.42-28.82-28.96z" fill="#00b3bb"/><path d="M1061.84 294.92l9.5 9.5-11.7 6V340l13.62-40.85-11.42-4.23z" fill="#c9ebec"/><path d="M1076.05 299.16h-.15V340l9.5-28.38 4.1-12.46h-13.45z" fill="#00868c"/><path d="M1075.88 299.16h-2.63l-13.6 40.83h16.23v-40.84z" fill="#00b3bb"/><path d="M1042.37 291.4l-20.92 20.93 33.36-16.82-12.43-4.1zM1054.82 281.9v13.6l5.12-2.5-5.12-11.1z" fill="#c9ebec"/><path d="M1061.85 294.92l-28.83 28.82 26.65-13.32 11.7-6-9.52-9.5z" fill="#00868c"/><path d="M1061.83 294.93l-1.9-1.9-5.12 2.48-33.35 16.84 11.55 11.4 28.83-28.8z" fill="#00b3bb"/><path d="M1059.07 267.84l-9.5 9.5-6-11.7H1014l40.84 13.62 4.23-11.42z" fill="#c9ebec"/><path d="M1054.82 295.5v-13.6H1014l28.37 9.5 12.45 4.1z" fill="#00868c"/><path d="M1054.82 281.88v-2.63l-40.82-13.6v16.23h40.82z" fill="#00b3bb"/><path d="M1071.94 260.82h-13.45l4.08-12.43-20.93-20.95 19.32 38.5 10.97-5.13z" fill="#c9ebec"/><path d="M1059.06 267.85l-28.82-28.97 13.3 26.78 6 11.7 9.52-9.5z" fill="#00868c"/><path d="M1059.05 267.83l1.9-1.9-19.32-38.48-11.4 11.43 28.82 28.95z" fill="#00b3bb"/><path d="M1086.14 265.07l-9.52-9.5 11.7-6V220l-13.6 40.83 11.42 4.24z" fill="#c9ebec"/><path d="M1071.94 260.82h.15V220l-9.52 28.37-4.1 12.45h13.46z" fill="#00868c"/><path d="M1072.1 260.82h2.62l13.6-40.82h-16.23v40.82z" fill="#00b3bb"/><path d="M1086.14 265.06l28.83-28.82-26.65 13.3-11.7 6 9.52 9.52z" fill="#00868c"/><path d="M1086.14 265.05l1.9 1.9 5.13-2.48 33.35-16.84-11.55-11.4-28.83 28.82z" fill="#00b3bb"/><use xlink:href="#f" transform="matrix(1,0,0,1,1014,340) translate(13.056481481481491 21.511111111111106)"/><use xlink:href="#g" transform="matrix(1,0,0,1,1014,340) translate(20.525617283950623 21.511111111111106)"/><path d="M1093.15 475.1v-13.62l-5.1 2.5 5.1 11.1zM1105.6 465.56l20.92-20.9-33.36 16.8 12.45 4.1zM1093.15 477.72l-4.23 11.42 9.5-9.5 6 11.7H1134l-40.85-13.62z" fill="#c9ebec"/><path d="M1093.16 461.48v13.6H1134l-28.38-9.5-12.46-4.1z" fill="#00868c"/><path d="M1093.16 475.1v2.62l40.83 13.6V475.1h-40.84z" fill="#00b3bb"/><path d="M1076.04 496.16h13.45l-4.1 12.43 20.93 20.92-19.33-38.48-10.96 5.12z" fill="#c9ebec"/><path d="M1088.92 489.13l28.82 28.98-13.32-26.77-6-11.7-9.5 9.5z" fill="#00868c"/><path d="M1088.92 489.14l-1.9 1.9 19.32 38.48 11.4-11.42-28.82-28.96z" fill="#00b3bb"/><path d="M1061.84 491.92l9.5 9.5-11.7 6V537l13.62-40.85-11.42-4.23z" fill="#c9ebec"/><path d="M1076.05 496.16h-.15V537l9.5-28.38 4.1-12.46h-13.45z" fill="#00868c"/><path d="M1075.88 496.16h-2.63l-13.6 40.83h16.23v-40.84z" fill="#00b3bb"/><path d="M1042.37 488.4l-20.92 20.93 33.36-16.82-12.43-4.1zM1054.82 478.9v13.6l5.12-2.5-5.12-11.1z" fill="#c9ebec"/><path d="M1061.85 491.92l-28.83 28.82 26.65-13.32 11.7-6-9.52-9.5z" fill="#00868c"/><path d="M1061.83 491.93l-1.9-1.9-5.12 2.48-33.35 16.84 11.55 11.4 28.83-28.8z" fill="#00b3bb"/><path d="M1059.07 464.84l-9.5 9.5-6-11.7H1014l40.84 13.62 4.23-11.42z" fill="#c9ebec"/><path d="M1054.82 492.5v-13.6H1014l28.37 9.5 12.45 4.1z" fill="#00868c"/><path d="M1054.82 478.88v-2.63l-40.82-13.6v16.23h40.82z" fill="#00b3bb"/><path d="M1071.94 457.82h-13.45l4.08-12.43-20.93-20.95 19.32 38.5 10.97-5.13z" fill="#c9ebec"/><path d="M1059.06 464.85l-28.82-28.97 13.3 26.78 6 11.7 9.52-9.5z" fill="#00868c"/><path d="M1059.05 464.83l1.9-1.9-19.32-38.48-11.4 11.43 28.82 28.95z" fill="#00b3bb"/><path d="M1086.14 462.07l-9.52-9.5 11.7-6V417l-13.6 40.83 11.42 4.24z" fill="#c9ebec"/><path d="M1071.94 457.82h.15V417l-9.52 28.37-4.1 12.45h13.46z" fill="#00868c"/><path d="M1072.1 457.82h2.62l13.6-40.82h-16.23v40.82z" fill="#00b3bb"/><path d="M1086.14 462.06l28.83-28.82-26.65 13.3-11.7 6 9.52 9.52z" fill="#00868c"/><path d="M1086.14 462.05l1.9 1.9 5.13-2.48 33.35-16.84-11.55-11.4-28.83 28.82z" fill="#00b3bb"/><use xlink:href="#f" transform="matrix(1,0,0,1,1014,537) translate(13.056481481481491 21.511111111111106)"/><use xlink:href="#g" transform="matrix(1,0,0,1,1014,537) translate(20.525617283950623 21.511111111111106)"/><path d="M1093.15 672.1v-13.62l-5.1 2.5 5.1 11.1zM1105.6 662.56l20.92-20.9-33.36 16.8 12.45 4.1zM1093.15 674.72l-4.23 11.42 9.5-9.5 6 11.7H1134l-40.85-13.62z" fill="#c9ebec"/><path d="M1093.16 658.48v13.6H1134l-28.38-9.5-12.46-4.1z" fill="#00868c"/><path d="M1093.16 672.1v2.62l40.83 13.6V672.1h-40.84z" fill="#00b3bb"/><path d="M1076.04 693.16h13.45l-4.1 12.43 20.93 20.92-19.33-38.48-10.96 5.12z" fill="#c9ebec"/><path d="M1088.92 686.13l28.82 28.98-13.32-26.77-6-11.7-9.5 9.5z" fill="#00868c"/><path d="M1088.92 686.14l-1.9 1.9 19.32 38.48 11.4-11.42-28.82-28.96z" fill="#00b3bb"/><path d="M1061.84 688.92l9.5 9.5-11.7 6V734l13.62-40.85-11.42-4.23z" fill="#c9ebec"/><path d="M1076.05 693.16h-.15V734l9.5-28.38 4.1-12.46h-13.45z" fill="#00868c"/><path d="M1075.88 693.16h-2.63l-13.6 40.83h16.23v-40.84z" fill="#00b3bb"/><path d="M1042.37 685.4l-20.92 20.93 33.36-16.82-12.43-4.1zM1054.82 675.9v13.6l5.12-2.5-5.12-11.1z" fill="#c9ebec"/><path d="M1061.85 688.92l-28.83 28.82 26.65-13.32 11.7-6-9.52-9.5z" fill="#00868c"/><path d="M1061.83 688.92l-1.9-1.9-5.12 2.5-33.35 16.82 11.55 11.4 28.83-28.82z" fill="#00b3bb"/><path d="M1059.07 661.84l-9.5 9.5-6-11.7H1014l40.84 13.62 4.23-11.42z" fill="#c9ebec"/><path d="M1054.82 689.5v-13.6H1014l28.37 9.5 12.45 4.1z" fill="#00868c"/><path d="M1054.82 675.88v-2.63l-40.82-13.6v16.23h40.82z" fill="#00b3bb"/><path d="M1071.94 654.82h-13.45l4.08-12.43-20.93-20.95 19.32 38.5 10.97-5.13z" fill="#c9ebec"/><path d="M1059.06 661.85l-28.82-28.97 13.3 26.78 6 11.7 9.52-9.5z" fill="#00868c"/><path d="M1059.05 661.83l1.9-1.9-19.32-38.48-11.4 11.43 28.82 28.95z" fill="#00b3bb"/><path d="M1086.14 659.07l-9.52-9.5 11.7-6V614l-13.6 40.84 11.42 4.23z" fill="#c9ebec"/><path d="M1071.94 654.82h.15V614l-9.52 28.37-4.1 12.45h13.46z" fill="#00868c"/><path d="M1072.1 654.82h2.62l13.6-40.82h-16.23v40.82z" fill="#00b3bb"/><path d="M1086.14 659.06l28.83-28.82-26.65 13.3-11.7 6 9.52 9.52z" fill="#00868c"/><path d="M1086.14 659.05l1.9 1.9 5.13-2.48 33.35-16.84-11.55-11.4-28.83 28.82z" fill="#00b3bb"/><use xlink:href="#f" transform="matrix(1,0,0,1,1014,734) translate(13.056481481481491 21.511111111111106)"/><use xlink:href="#g" transform="matrix(1,0,0,1,1014,734) translate(20.525617283950623 21.511111111111106)"/><path d="M806.5 284.14h197.8" stroke="#3a414a" fill="none"/><path d="M806.5 284.62h-.5v-.95h.5z" stroke="#3a414a" stroke-width=".05" fill="#3a414a"/><path d="M1019.08 284.14l-14.27 4.64v-9.27z" stroke="#3a414a" fill="#3a414a"/><path d="M806.5 481.14h197.8" stroke="#3a414a" fill="none"/><path d="M806.5 481.62h-.5v-.95h.5z" stroke="#3a414a" stroke-width=".05" fill="#3a414a"/><path d="M1019.08 481.14l-14.27 4.64v-9.27z" stroke="#3a414a" fill="#3a414a"/><path d="M806.5 678.14h197.8" stroke="#3a414a" fill="none"/><path d="M806.5 678.62h-.5v-.95h.5z" stroke="#3a414a" stroke-width=".05" fill="#3a414a"/><path d="M1019.08 678.14l-14.27 4.64v-9.27z" stroke="#3a414a" fill="#3a414a"/><path d="M1321.48 378.72c-2.67 0-4.83 2-4.83 4.52 0 .52.1 1.04.24 1.48l-10.37 5.54c-.84-.88-2.1-1.4-3.5-1.4-1.47 0-2.73.6-3.58 1.4l-10.6-5.7c.15-.43.24-.88.24-1.32 0-2.53-2.16-4.52-4.83-4.52-2.68 0-4.83 2-4.83 4.52 0 2.52 2.15 4.5 4.83 4.5 1.4 0 2.67-.58 3.56-1.4l10.6 5.7c-.2.45-.24.9-.24 1.33 0 2.53 2.1 4.53 4.82 4.53 2.67 0 4.78-2 4.78-4.53 0-.44-.05-.88-.24-1.32l10.55-5.62c.85.8 2.02 1.32 3.38 1.32 2.67 0 4.83-2 4.83-4.5 0-2.46-2.2-4.53-4.82-4.53zM1296.6 337.9c-2.7 0-4.84 2-4.84 4.53 0 .43.1.86.26 1.33l-10.6 5.7c-.87-.9-2.14-1.4-3.56-1.4-2.7 0-4.82 2-4.82 4.5 0 2.14 1.6 3.95 3.7 4.38v11.4c-2.12.44-3.7 2.25-3.7 4.37 0 2.53 2.12 4.54 4.82 4.54s4.82-2 4.82-4.53c0-2.1-1.6-3.92-3.7-4.35v-11.4c2.1-.44 3.7-2.25 3.7-4.38 0-.43-.08-.9-.25-1.33l10.6-5.7c.86.9 2.14 1.4 3.56 1.4 2.68 0 4.8-2 4.8-4.5 0-2.53-2.12-4.54-4.8-4.54zM1329.32 368.3v-11.36c2.13-.43 3.7-2.23 3.7-4.35 0-2.56-2.1-4.57-4.8-4.57-1.44 0-2.63.63-3.57 1.42l-10.52-5.7c.17-.43.25-.9.25-1.33 0-2.5-2.15-4.52-4.84-4.52-2.68 0-4.8 2-4.8 4.52 0 2.5 2.12 4.5 4.8 4.5 1.45 0 2.7-.57 3.57-1.4l10.54 5.65c-.17.44-.26.87-.26 1.34 0 2.13 1.6 3.94 3.74 4.37v11.42c-2.15.42-3.74 2.2-3.74 4.35 0 2.5 2.15 4.5 4.84 4.5 2.7 0 4.8-2 4.8-4.5 0-2.08-1.58-3.93-3.7-4.36z" fill="#ababab"/><path d="M1303.07 356.87l12.97 12.14 4.2-4-17.17-16.06-17.15 16.07 4.18 4 12.97-12.13z" fill="#feb72f"/><path d="M1303.07 358.42l-14.62 13.7 4.18 4 10.44-9.77 10.44 9.77 4.2-4-14.63-13.7z" fill="#a2d8f2"/><path d="M1303.08 367.9l-11.55 10.82 4.2 3.92 7.35-6.8 7.34 6.8 4.2-3.92-11.54-10.82z" fill="#59bae1"/><path d="M1321.48 458.72c-2.67 0-4.83 2-4.83 4.52 0 .52.1 1.04.24 1.48l-10.37 5.54c-.84-.88-2.1-1.4-3.5-1.4-1.47 0-2.73.6-3.58 1.4l-10.6-5.7c.15-.43.24-.88.24-1.32 0-2.53-2.16-4.52-4.83-4.52-2.68 0-4.83 2-4.83 4.52 0 2.52 2.15 4.5 4.83 4.5 1.4 0 2.67-.58 3.56-1.4l10.6 5.7c-.2.45-.24.9-.24 1.33 0 2.53 2.1 4.53 4.82 4.53 2.67 0 4.78-2 4.78-4.53 0-.44-.05-.88-.24-1.32l10.55-5.62c.85.8 2.02 1.32 3.38 1.32 2.67 0 4.83-2 4.83-4.5 0-2.46-2.2-4.53-4.82-4.53zM1296.6 417.9c-2.7 0-4.84 2-4.84 4.53 0 .43.1.86.26 1.33l-10.6 5.7c-.87-.9-2.14-1.4-3.56-1.4-2.7 0-4.82 2-4.82 4.5 0 2.14 1.6 3.95 3.7 4.38v11.4c-2.12.44-3.7 2.25-3.7 4.37 0 2.53 2.12 4.54 4.82 4.54s4.82-2 4.82-4.53c0-2.1-1.6-3.92-3.7-4.35v-11.4c2.1-.44 3.7-2.25 3.7-4.38 0-.43-.08-.9-.25-1.33l10.6-5.7c.86.9 2.14 1.4 3.56 1.4 2.68 0 4.8-2 4.8-4.5 0-2.53-2.12-4.54-4.8-4.54zM1329.32 448.3v-11.36c2.13-.43 3.7-2.23 3.7-4.35 0-2.56-2.1-4.57-4.8-4.57-1.44 0-2.63.63-3.57 1.42l-10.52-5.7c.17-.43.25-.9.25-1.33 0-2.5-2.15-4.52-4.84-4.52-2.68 0-4.8 2-4.8 4.52 0 2.5 2.12 4.5 4.8 4.5 1.45 0 2.7-.57 3.57-1.4l10.54 5.65c-.17.44-.26.87-.26 1.34 0 2.13 1.6 3.94 3.74 4.37v11.42c-2.15.42-3.74 2.2-3.74 4.35 0 2.5 2.15 4.5 4.84 4.5 2.7 0 4.8-2 4.8-4.5 0-2.08-1.58-3.93-3.7-4.36z" fill="#ababab"/><path d="M1303.07 436.87l12.97 12.14 4.2-4-17.17-16.06-17.15 16.07 4.18 4 12.97-12.13z" fill="#feb72f"/><path d="M1303.07 438.42l-14.62 13.7 4.18 4 10.44-9.77 10.44 9.77 4.2-4-14.63-13.7z" fill="#a2d8f2"/><path d="M1303.08 447.9l-11.55 10.82 4.2 3.92 7.35-6.8 7.34 6.8 4.2-3.92-11.54-10.82z" fill="#59bae1"/><path d="M1321.48 538.72c-2.67 0-4.83 2-4.83 4.52 0 .52.1 1.04.24 1.48l-10.37 5.54c-.84-.88-2.1-1.4-3.5-1.4-1.47 0-2.73.6-3.58 1.4l-10.6-5.7c.15-.43.24-.88.24-1.32 0-2.53-2.16-4.52-4.83-4.52-2.68 0-4.83 2-4.83 4.52 0 2.52 2.15 4.5 4.83 4.5 1.4 0 2.67-.58 3.56-1.4l10.6 5.7c-.2.45-.24.9-.24 1.33 0 2.53 2.1 4.53 4.82 4.53 2.67 0 4.78-2 4.78-4.53 0-.44-.05-.88-.24-1.32l10.55-5.62c.85.8 2.02 1.32 3.38 1.32 2.67 0 4.83-2 4.83-4.5 0-2.46-2.2-4.53-4.82-4.53zM1296.6 497.9c-2.7 0-4.84 2-4.84 4.53 0 .43.1.86.26 1.33l-10.6 5.7c-.87-.9-2.14-1.4-3.56-1.4-2.7 0-4.82 2-4.82 4.52 0 2.12 1.6 3.93 3.7 4.36v11.4c-2.12.44-3.7 2.25-3.7 4.37 0 2.53 2.12 4.53 4.82 4.53s4.82-2 4.82-4.52c0-2.1-1.6-3.92-3.7-4.35v-11.4c2.1-.44 3.7-2.25 3.7-4.38 0-.43-.08-.9-.25-1.33l10.6-5.7c.86.9 2.14 1.4 3.56 1.4 2.68 0 4.8-2 4.8-4.5 0-2.53-2.12-4.54-4.8-4.54zM1329.32 528.3v-11.35c2.13-.44 3.7-2.24 3.7-4.36 0-2.56-2.1-4.57-4.8-4.57-1.44 0-2.63.63-3.57 1.42l-10.52-5.7c.17-.43.25-.9.25-1.33 0-2.5-2.15-4.52-4.84-4.52-2.68 0-4.8 2-4.8 4.52 0 2.5 2.12 4.5 4.8 4.5 1.45 0 2.7-.57 3.57-1.4l10.54 5.65c-.17.44-.26.87-.26 1.34 0 2.13 1.6 3.93 3.74 4.37v11.42c-2.15.42-3.74 2.2-3.74 4.35 0 2.5 2.15 4.5 4.84 4.5 2.7 0 4.8-2 4.8-4.5 0-2.08-1.58-3.93-3.7-4.36z" fill="#ababab"/><path d="M1303.07 516.87l12.97 12.14 4.2-4-17.17-16.06-17.15 16.07 4.18 4 12.97-12.13z" fill="#feb72f"/><path d="M1303.07 518.42l-14.62 13.7 4.18 4 10.44-9.77 10.44 9.77 4.2-4-14.63-13.7z" fill="#a2d8f2"/><path d="M1303.08 527.9l-11.55 10.82 4.2 3.92 7.35-6.8 7.34 6.8 4.2-3.92-11.54-10.82z" fill="#59bae1"/><path d="M1321.48 618.72c-2.67 0-4.83 2-4.83 4.52 0 .52.1 1.04.24 1.48l-10.37 5.54c-.84-.88-2.1-1.4-3.5-1.4-1.47 0-2.73.6-3.58 1.4l-10.6-5.7c.15-.43.24-.88.24-1.32 0-2.53-2.16-4.52-4.83-4.52-2.68 0-4.83 2-4.83 4.52 0 2.52 2.15 4.5 4.83 4.5 1.4 0 2.67-.58 3.56-1.4l10.6 5.7c-.2.45-.24.9-.24 1.33 0 2.53 2.1 4.53 4.82 4.53 2.67 0 4.78-2 4.78-4.53 0-.44-.05-.88-.24-1.32l10.55-5.62c.85.8 2.02 1.32 3.38 1.32 2.67 0 4.83-2 4.83-4.5 0-2.46-2.2-4.53-4.82-4.53zM1296.6 577.9c-2.7 0-4.84 2-4.84 4.53 0 .43.1.86.26 1.34l-10.6 5.7c-.87-.9-2.14-1.42-3.56-1.42-2.7 0-4.82 2-4.82 4.53 0 2.12 1.6 3.93 3.7 4.36v11.4c-2.12.44-3.7 2.25-3.7 4.37 0 2.53 2.12 4.53 4.82 4.53s4.82-2 4.82-4.52c0-2.1-1.6-3.92-3.7-4.35v-11.4c2.1-.44 3.7-2.25 3.7-4.38 0-.43-.08-.9-.25-1.33l10.6-5.7c.86.9 2.14 1.4 3.56 1.4 2.68 0 4.8-2 4.8-4.5 0-2.53-2.12-4.54-4.8-4.54zM1329.32 608.3v-11.35c2.13-.44 3.7-2.24 3.7-4.36 0-2.56-2.1-4.57-4.8-4.57-1.44 0-2.63.63-3.57 1.42l-10.52-5.7c.17-.43.25-.9.25-1.33 0-2.5-2.15-4.5-4.84-4.5-2.68 0-4.8 2-4.8 4.5s2.12 4.5 4.8 4.5c1.45 0 2.7-.57 3.57-1.4l10.54 5.65c-.17.44-.26.87-.26 1.34 0 2.13 1.6 3.93 3.74 4.37v11.42c-2.15.42-3.74 2.2-3.74 4.35 0 2.5 2.15 4.5 4.84 4.5 2.7 0 4.8-2 4.8-4.5 0-2.08-1.58-3.93-3.7-4.36z" fill="#ababab"/><path d="M1303.07 596.87l12.97 12.14 4.2-4-17.17-16.06-17.15 16.07 4.18 4 12.97-12.13z" fill="#feb72f"/><path d="M1303.07 598.42l-14.62 13.7 4.18 4 10.44-9.77 10.44 9.77 4.2-4-14.63-13.7z" fill="#a2d8f2"/><path d="M1303.08 607.9l-11.55 10.82 4.2 3.92 7.35-6.8 7.34 6.8 4.2-3.92-11.54-10.82z" fill="#59bae1"/><path d="M1361.52 338.35a6 6 0 0 1 6-6h137.5a6 6 0 0 1 6 6v48a6 6 0 0 1-6 6h-137.5a6 6 0 0 1-6-6z" fill="none"/><use xlink:href="#h" transform="matrix(1,0,0,1,1361.518,332.3461407060291) translate(-4.283950617283949 35.77777777777778)"/><path d="M1354.52 578.35a6 6 0 0 1 6-6h308a6 6 0 0 1 6 6v48a6 6 0 0 1-6 6h-308a6 6 0 0 1-6-6z" fill="none"/><use xlink:href="#i" transform="matrix(1,0,0,1,1354.524,572.3461407060289) translate(5.364197530864203 35.77777777777778)"/><use xlink:href="#j" transform="matrix(1,0,0,1,1354.524,572.3461407060289) translate(71.00617283950618 35.77777777777778)"/><use xlink:href="#k" transform="matrix(1,0,0,1,1354.524,572.3461407060289) translate(204.1358024691358 35.77777777777778)"/><path d="M1354.52 498.35a6 6 0 0 1 6-6h392.5a6 6 0 0 1 6 6v48a6 6 0 0 1-6 6h-392.5a6 6 0 0 1-6-6z" fill="none"/><use xlink:href="#l" transform="matrix(1,0,0,1,1354.524,492.3461407060287) translate(2.324074074074076 35.77777777777778)"/><use xlink:href="#m" transform="matrix(1,0,0,1,1354.524,492.3461407060287) translate(130.47839506172838 35.77777777777778)"/><use xlink:href="#n" transform="matrix(1,0,0,1,1354.524,492.3461407060287) translate(255.4228395061728 35.77777777777778)"/><path d="M1354.52 418.35a6 6 0 0 1 6-6h292.5a6 6 0 0 1 6 6v48a6 6 0 0 1-6 6h-292.5a6 6 0 0 1-6-6z" fill="none"/><use xlink:href="#o" transform="matrix(1,0,0,1,1354.524,412.3461407060289) translate(1.9567901234567842 35.77777777777778)"/><use xlink:href="#p" transform="matrix(1,0,0,1,1354.524,412.3461407060289) translate(91.67283950617283 35.77777777777778)"/><use xlink:href="#q" transform="matrix(1,0,0,1,1354.524,412.3461407060289) translate(184.679012345679 35.77777777777778)"/><path d="M1929.15 388.88h32.66v-45.04h-69.78v65.76h37.13v-20.72z" fill="#4b612c"/><path d="M1933 392.17h59v49.9h-59v-49.9z" fill="#4b612c"/><path d="M1929.15 385.04h32.66V340h-69.78v65.76h37.13v-20.72z" fill="#759c3e"/><path d="M1923 351.72h30.85v4.84H1923v-4.84zM1923 370.42h30.85v4.84H1923v-4.84zM1898.87 352.57l3.7-3.13 7.4 6.27-3.7 3.14-7.4-6.27z" fill="#fff"/><path d="M1902.67 355.78l11.9-10.05 3.6 3.05-11.88 10.06-3.63-3.06zM1902.7 374.22l11.88-10.06 3.6 3.06-11.87 10.05-3.6-3.05zM1902.68 392.66l11.9-10.06 3.6 3.06-11.88 10.05-3.62-3.04z" fill="#fff"/><path d="M1898.86 371l3.7-3.12 7.4 6.27-3.7 3.12-7.4-6.26zM1898.87 389.46l3.7-3.13 7.4 6.27-3.7 3.12-7.4-6.26zM1923 351.72h30.85v4.84H1923v-4.84zM1923 370.42h30.85v4.84H1923v-4.84zM1898.87 352.57l3.7-3.13 7.4 6.27-3.7 3.14-7.4-6.27z" fill="#fff"/><path d="M1902.67 355.78l11.9-10.05 3.6 3.05-11.88 10.06-3.63-3.06zM1902.7 374.22l11.88-10.06 3.6 3.06-11.87 10.05-3.6-3.05zM1902.68 392.66l11.9-10.06 3.6 3.06-11.88 10.05-3.62-3.04z" fill="#fff"/><path d="M1898.86 371l3.7-3.12 7.4 6.27-3.7 3.12-7.4-6.26zM1898.87 389.46l3.7-3.13 7.4 6.27-3.7 3.12-7.4-6.26zM1923 389.15h6.1V394h-6.1v-4.85z" fill="#fff"/><path d="M1933 388.33h59v49.92h-59v-49.92z" fill="#759c3e"/><path d="M1943.05 417.5l-3.9-3.28 14.72-12.48 9.73 8.24 17.52-14.8 3.9 3.27-21.42 18.1-9.72-8.2-10.83 9.15z" fill="#fff"/><path d="M1974.35 396.05l9.65 8.14 3.73-11.32-13.38 3.17zM1945.42 427.9v5.62h-5.72v-5.63h5.72zM1958.86 416.63v16.9h-5.72v-16.9h5.72zM1972.34 422.27v11.26h-5.72v-11.26h5.72zM1985.78 411v22.53h-5.72V411h5.72z" fill="#fff"/><path d="M1912.02 471.15a6 6 0 0 1 6-6h228a6 6 0 0 1 6 6v48a6 6 0 0 1-6 6h-228a6 6 0 0 1-6-6z" fill="none"/><use xlink:href="#r" transform="matrix(1,0,0,1,1912.0239999999997,465.1546773835396) translate(0.592592592592581 23.11111111111111)"/><use xlink:href="#s" transform="matrix(1,0,0,1,1912.0239999999997,465.1546773835396) translate(104.75308641975307 23.11111111111111)"/><use xlink:href="#t" transform="matrix(1,0,0,1,1912.0239999999997,465.1546773835396) translate(6.9722222222222285 57.77777777777777)"/><use xlink:href="#u" transform="matrix(1,0,0,1,1912.0239999999997,465.1546773835396) translate(63.14506172839507 57.77777777777777)"/><path d="M1134.5 284.44h101.66" stroke="#3a414a" fill="none"/><path d="M1134.5 284.92h-.5v-.96h.5z" stroke="#3a414a" stroke-width=".05" fill="#3a414a"/><path d="M1250.92 284.44l-14.27 4.63v-9.26z" stroke="#3a414a" fill="#3a414a"/><path d="M1134.5 678.44h101.66" stroke="#3a414a" fill="none"/><path d="M1134.5 678.9h-.5V678h.5z" stroke="#3a414a" stroke-width=".05" fill="#3a414a"/><path d="M1250.92 678.44l-14.27 4.63v-9.27z" stroke="#3a414a" fill="#3a414a"/><path d="M1767.5 487h81.13" stroke="#000" fill="none"/><path d="M1767.53 487.47h-.52v-.95h.53z" stroke="#000" stroke-width=".05"/><path d="M1863.4 487l-14.27 4.63v-9.27z" stroke="#000"/><path d="M1134.5 481.44h100.14" stroke="#000" fill="none"/><path d="M1134.5 481.92h-.5v-.96h.5z" stroke="#000" stroke-width=".05"/><path d="M1249.4 481.44l-14.26 4.64v-9.27z" stroke="#000"/><path d="M1372.02 686a6 6 0 0 1 6-6h275a6 6 0 0 1 6 6v45a6 6 0 0 1-6 6h-275a6 6 0 0 1-6-6z" fill="none"/><g><use xlink:href="#v" transform="matrix(1,0,0,1,1372.024,679.999397208533) translate(15.574074074074105 33.83333333333333)"/><use xlink:href="#w" transform="matrix(1,0,0,1,1372.024,679.999397208533) translate(136.75925925925924 33.83333333333333)"/></g><path d="M400 525.2v118.42" stroke="#000" stroke-opacity="0" fill="none"/><path d="M400 658.38l-4.63-14.26h9.26z" stroke="#000" stroke-opacity="0" fill-opacity="0"/><path d="M400 525.2V678a6 6 0 0 0 6 6h277.62" stroke="#000" stroke-opacity="0" fill="none"/><path d="M698.38 684l-14.26 4.63v-9.26z" stroke="#000" stroke-opacity="0" fill-opacity="0"/><path d="M400 525.2V678a6 6 0 0 0 6 6h277.62" stroke="#000" fill="none"/><path d="M400.48 525.2h-.96v-.5h.96z" stroke="#000" stroke-width=".05"/><path d="M698.38 684l-14.26 4.63v-9.26z" stroke="#000"/><path d="M340 531.15a6 6 0 0 1 6-6h108a6 6 0 0 1 6 6v48a6 6 0 0 1-6 6H346a6 6 0 0 1-6-6z" fill="none"/><g><use xlink:href="#x" transform="matrix(1,0,0,1,340,525.1546773835396) translate(10.287037037037038 35.77777777777778)"/></g><defs><path d="M143 4C61 4 22-44 18-125c-5-107 100-154 193-111 17 8 29 25 37 43l-32 9c-13-25-37-40-76-40-61 0-88 39-88 99 0 61 29 100 91 101 35 0 62-11 79-27v-45h-74v-28h105v86C228-13 192 4 143 4" id="y"/><path d="M212-179c-10-28-35-45-73-45-59 0-87 40-87 99 0 60 29 101 89 101 43 0 62-24 78-52l27 14C228-24 195 4 139 4 59 4 22-46 18-125c-6-104 99-153 187-111 19 9 31 26 39 46" id="z"/><path d="M190 0L58-211 59 0H30v-248h39L202-35l-2-213h31V0h-41" id="A"/><g id="a"><use transform="matrix(0.08086419753086417,0,0,0.08086419753086417,0,0)" xlink:href="#y"/><use transform="matrix(0.08086419753086417,0,0,0.08086419753086417,22.641975308641968,0)" xlink:href="#z"/><use transform="matrix(0.08086419753086417,0,0,0.08086419753086417,43.585802469135785,0)" xlink:href="#A"/></g><path d="M205 0l-28-72H64L36 0H1l101-248h38L239 0h-34zm-38-99l-47-123c-12 45-31 82-46 123h93" id="B"/><path d="M127-220V0H93v-220H8v-28h204v28h-85" id="C"/><g id="b"><use transform="matrix(0.08086419753086417,0,0,0.08086419753086417,0,0)" xlink:href="#y"/><use transform="matrix(0.08086419753086417,0,0,0.08086419753086417,22.641975308641968,0)" xlink:href="#B"/><use transform="matrix(0.08086419753086417,0,0,0.08086419753086417,39.866049382716035,0)" xlink:href="#C"/></g><path d="M33 0v-248h34V0H33" id="D"/><g id="c"><use transform="matrix(0.08086419753086417,0,0,0.08086419753086417,0,0)" xlink:href="#y"/><use transform="matrix(0.08086419753086417,0,0,0.08086419753086417,22.641975308641968,0)" xlink:href="#D"/><use transform="matrix(0.08086419753086417,0,0,0.08086419753086417,30.728395061728385,0)" xlink:href="#A"/></g><g id="d"><use transform="matrix(0.056172839506172814,0,0,0.056172839506172814,0,0)" xlink:href="#y"/><use transform="matrix(0.056172839506172814,0,0,0.056172839506172814,15.728395061728389,0)" xlink:href="#A"/><use transform="matrix(0.056172839506172814,0,0,0.056172839506172814,30.277160493827147,0)" xlink:href="#A"/></g><path d="M240 0l2-218c-23 76-54 145-80 218h-23L58-218 59 0H30v-248h44l77 211c21-75 51-140 76-211h43V0h-30" id="E"/><path d="M100-194c62-1 85 37 85 99 1 63-27 99-86 99S16-35 15-95c0-66 28-99 85-99zM99-20c44 1 53-31 53-75 0-43-8-75-51-75s-53 32-53 75 10 74 51 75" id="F"/><path d="M85-194c31 0 48 13 60 33l-1-100h32l1 261h-30c-2-10 0-23-3-31C134-8 116 4 85 4 32 4 16-35 15-94c0-66 23-100 70-100zm9 24c-40 0-46 34-46 75 0 40 6 74 45 74 42 0 51-32 51-76 0-42-9-74-50-73" id="G"/><path d="M100-194c63 0 86 42 84 106H49c0 40 14 67 53 68 26 1 43-12 49-29l28 8c-11 28-37 45-77 45C44 4 14-33 15-96c1-61 26-98 85-98zm52 81c6-60-76-77-97-28-3 7-6 17-6 28h103" id="H"/><path d="M24 0v-261h32V0H24" id="I"/><path d="M135-143c-3-34-86-38-87 0 15 53 115 12 119 90S17 21 10-45l28-5c4 36 97 45 98 0-10-56-113-15-118-90-4-57 82-63 122-42 12 7 21 19 24 35" id="J"/><g id="e"><use transform="matrix(0.056172839506172814,0,0,0.056172839506172814,0,0)" xlink:href="#E"/><use transform="matrix(0.056172839506172814,0,0,0.056172839506172814,16.795679012345673,0)" xlink:href="#F"/><use transform="matrix(0.056172839506172814,0,0,0.056172839506172814,28.030246913580235,0)" xlink:href="#G"/><use transform="matrix(0.056172839506172814,0,0,0.056172839506172814,39.2648148148148,0)" xlink:href="#H"/><use transform="matrix(0.056172839506172814,0,0,0.056172839506172814,50.49938271604936,0)" xlink:href="#I"/><use transform="matrix(0.056172839506172814,0,0,0.056172839506172814,54.937037037037015,0)" xlink:href="#J"/></g><path d="M59-47c-2 24 18 29 38 22v24C64 9 27 4 27-40v-127H5v-23h24l9-43h21v43h35v23H59v120" id="K"/><path d="M114-163C36-179 61-72 57 0H25l-1-190h30c1 12-1 29 2 39 6-27 23-49 58-41v29" id="L"/><path d="M24-231v-30h32v30H24zM24 0v-190h32V0H24" id="M"/><path d="M96-169c-40 0-48 33-48 73s9 75 48 75c24 0 41-14 43-38l32 2c-6 37-31 61-74 61-59 0-76-41-82-99-10-93 101-131 147-64 4 7 5 14 7 22l-32 3c-4-21-16-35-41-35" id="N"/><g id="g"><use transform="matrix(0.07469135802469135,0,0,0.07469135802469135,0,0)" xlink:href="#E"/><use transform="matrix(0.07469135802469135,0,0,0.07469135802469135,22.33271604938271,0)" xlink:href="#H"/><use transform="matrix(0.07469135802469135,0,0,0.07469135802469135,37.270987654320976,0)" xlink:href="#K"/><use transform="matrix(0.07469135802469135,0,0,0.07469135802469135,44.74012345679011,0)" xlink:href="#L"/><use transform="matrix(0.07469135802469135,0,0,0.07469135802469135,53.628395061728376,0)" xlink:href="#M"/><use transform="matrix(0.07469135802469135,0,0,0.07469135802469135,59.52901234567899,0)" xlink:href="#N"/><use transform="matrix(0.07469135802469135,0,0,0.07469135802469135,72.97345679012344,0)" xlink:href="#J"/></g><path d="M233-177c-1 41-23 64-60 70L243 0h-38l-65-103H63V0H30v-248c88 3 205-21 203 71zM63-129c60-2 137 13 137-47 0-61-80-42-137-45v92" id="O"/><path d="M206 0h-36l-40-164L89 0H53L-1-190h32L70-26l43-164h34l41 164 42-164h31" id="P"/><path d="M177-190C167-65 218 103 67 71c-23-6-38-20-44-43l32-5c15 47 100 32 89-28v-30C133-14 115 1 83 1 29 1 15-40 15-95c0-56 16-97 71-98 29-1 48 16 59 35 1-10 0-23 2-32h30zM94-22c36 0 50-32 50-73 0-42-14-75-50-75-39 0-46 34-46 75s6 73 46 73" id="Q"/><path d="M106-169C34-169 62-67 57 0H25v-261h32l-1 103c12-21 28-36 61-36 89 0 53 116 60 194h-32v-121c2-32-8-49-39-48" id="R"/><path d="M117-194c89-4 53 116 60 194h-32v-121c0-31-8-49-39-48C34-167 62-67 57 0H25l-1-190h30c1 10-1 24 2 32 11-22 29-35 61-36" id="S"/><g id="h"><use transform="matrix(0.08024691358024691,0,0,0.08024691358024691,0,0)" xlink:href="#O"/><use transform="matrix(0.08024691358024691,0,0,0.08024691358024691,20.78395061728395,0)" xlink:href="#H"/><use transform="matrix(0.08024691358024691,0,0,0.08024691358024691,36.83333333333333,0)" xlink:href="#P"/><use transform="matrix(0.08024691358024691,0,0,0.08024691358024691,57.61728395061728,0)" xlink:href="#H"/><use transform="matrix(0.08024691358024691,0,0,0.08024691358024691,73.66666666666666,0)" xlink:href="#M"/><use transform="matrix(0.08024691358024691,0,0,0.08024691358024691,80.00617283950616,0)" xlink:href="#Q"/><use transform="matrix(0.08024691358024691,0,0,0.08024691358024691,96.05555555555556,0)" xlink:href="#R"/><use transform="matrix(0.08024691358024691,0,0,0.08024691358024691,112.10493827160491,0)" xlink:href="#K"/><use transform="matrix(0.08024691358024691,0,0,0.08024691358024691,120.12962962962962,0)" xlink:href="#M"/><use transform="matrix(0.08024691358024691,0,0,0.08024691358024691,126.46913580246913,0)" xlink:href="#S"/><use transform="matrix(0.08024691358024691,0,0,0.08024691358024691,142.5185185185185,0)" xlink:href="#Q"/></g><g id="i"><use transform="matrix(0.08024691358024691,0,0,0.08024691358024691,0,0)" xlink:href="#O"/><use transform="matrix(0.08024691358024691,0,0,0.08024691358024691,20.78395061728395,0)" xlink:href="#M"/><use transform="matrix(0.08024691358024691,0,0,0.08024691358024691,27.123456790123456,0)" xlink:href="#N"/><use transform="matrix(0.08024691358024691,0,0,0.08024691358024691,41.5679012345679,0)" xlink:href="#R"/></g><path d="M185-189c-5-48-123-54-124 2 14 75 158 14 163 119 3 78-121 87-175 55-17-10-28-26-33-46l33-7c5 56 141 63 141-1 0-78-155-14-162-118-5-82 145-84 179-34 5 7 8 16 11 25" id="T"/><path d="M84 4C-5 8 30-112 23-190h32v120c0 31 7 50 39 49 72-2 45-101 50-169h31l1 190h-30c-1-10 1-25-2-33-11 22-28 36-60 37" id="U"/><path d="M115-194c53 0 69 39 70 98 0 66-23 100-70 100C84 3 66-7 56-30L54 0H23l1-261h32v101c10-23 28-34 59-34zm-8 174c40 0 45-34 45-75 0-40-5-75-45-74-42 0-51 32-51 76 0 43 10 73 51 73" id="V"/><path d="M115-194c55 1 70 41 70 98S169 2 115 4C84 4 66-9 55-30l1 105H24l-1-265h31l2 30c10-21 28-34 59-34zm-8 174c40 0 45-34 45-75s-6-73-45-74c-42 0-51 32-51 76 0 43 10 73 51 73" id="W"/><g id="j"><use transform="matrix(0.08024691358024691,0,0,0.08024691358024691,0,0)" xlink:href="#T"/><use transform="matrix(0.08024691358024691,0,0,0.08024691358024691,19.25925925925926,0)" xlink:href="#U"/><use transform="matrix(0.08024691358024691,0,0,0.08024691358024691,35.308641975308646,0)" xlink:href="#V"/><use transform="matrix(0.08024691358024691,0,0,0.08024691358024691,51.358024691358025,0)" xlink:href="#Q"/><use transform="matrix(0.08024691358024691,0,0,0.08024691358024691,67.4074074074074,0)" xlink:href="#L"/><use transform="matrix(0.08024691358024691,0,0,0.08024691358024691,76.95679012345678,0)" xlink:href="#F"/><use transform="matrix(0.08024691358024691,0,0,0.08024691358024691,93.00617283950616,0)" xlink:href="#U"/><use transform="matrix(0.08024691358024691,0,0,0.08024691358024691,109.05555555555554,0)" xlink:href="#W"/></g><path d="M63-220v92h138v28H63V0H30v-248h175v28H63" id="X"/><path d="M141-36C126-15 110 5 73 4 37 3 15-17 15-53c-1-64 63-63 125-63 3-35-9-54-41-54-24 1-41 7-42 31l-33-3c5-37 33-52 76-52 45 0 72 20 72 64v82c-1 20 7 32 28 27v20c-31 9-61-2-59-35zM48-53c0 20 12 33 32 33 41-3 63-29 60-74-43 2-92-5-92 41" id="Y"/><g id="k"><use transform="matrix(0.08024691358024691,0,0,0.08024691358024691,0,0)" xlink:href="#X"/><use transform="matrix(0.08024691358024691,0,0,0.08024691358024691,17.574074074074073,0)" xlink:href="#Y"/><use transform="matrix(0.08024691358024691,0,0,0.08024691358024691,33.623456790123456,0)" xlink:href="#M"/><use transform="matrix(0.08024691358024691,0,0,0.08024691358024691,39.96296296296296,0)" xlink:href="#L"/><use transform="matrix(0.08024691358024691,0,0,0.08024691358024691,49.51234567901234,0)" xlink:href="#S"/><use transform="matrix(0.08024691358024691,0,0,0.08024691358024691,65.56172839506172,0)" xlink:href="#H"/><use transform="matrix(0.08024691358024691,0,0,0.08024691358024691,81.6111111111111,0)" xlink:href="#J"/><use transform="matrix(0.08024691358024691,0,0,0.08024691358024691,96.05555555555556,0)" xlink:href="#J"/></g><path d="M30-248c87 1 191-15 191 75 0 78-77 80-158 76V0H30v-248zm33 125c57 0 124 11 124-50 0-59-68-47-124-48v98" id="Z"/><path d="M24-231v-30h32v30H24zM-9 49c24 4 33-6 33-30v-209h32V24c2 40-23 58-65 49V49" id="aa"/><g id="l"><use transform="matrix(0.08024691358024691,0,0,0.08024691358024691,0,0)" xlink:href="#Z"/><use transform="matrix(0.08024691358024691,0,0,0.08024691358024691,19.25925925925926,0)" xlink:href="#L"/><use transform="matrix(0.08024691358024691,0,0,0.08024691358024691,28.80864197530864,0)" xlink:href="#H"/><use transform="matrix(0.08024691358024691,0,0,0.08024691358024691,44.858024691358025,0)" xlink:href="#aa"/><use transform="matrix(0.08024691358024691,0,0,0.08024691358024691,51.197530864197525,0)" xlink:href="#U"/><use transform="matrix(0.08024691358024691,0,0,0.08024691358024691,67.24691358024691,0)" xlink:href="#G"/><use transform="matrix(0.08024691358024691,0,0,0.08024691358024691,83.29629629629629,0)" xlink:href="#M"/><use transform="matrix(0.08024691358024691,0,0,0.08024691358024691,89.6358024691358,0)" xlink:href="#N"/><use transform="matrix(0.08024691358024691,0,0,0.08024691358024691,104.08024691358024,0)" xlink:href="#H"/></g><path d="M210-169c-67 3-38 105-44 169h-31v-121c0-29-5-50-35-48C34-165 62-65 56 0H25l-1-190h30c1 10-1 24 2 32 10-44 99-50 107 0 11-21 27-35 58-36 85-2 47 119 55 194h-31v-121c0-29-5-49-35-48" id="ab"/><path d="M108 0H70L1-190h34L89-25l56-165h34" id="ac"/><g id="m"><use transform="matrix(0.08024691358024691,0,0,0.08024691358024691,0,0)" xlink:href="#O"/><use transform="matrix(0.08024691358024691,0,0,0.08024691358024691,20.78395061728395,0)" xlink:href="#H"/><use transform="matrix(0.08024691358024691,0,0,0.08024691358024691,36.83333333333333,0)" xlink:href="#ab"/><use transform="matrix(0.08024691358024691,0,0,0.08024691358024691,60.82716049382715,0)" xlink:href="#F"/><use transform="matrix(0.08024691358024691,0,0,0.08024691358024691,76.87654320987653,0)" xlink:href="#ac"/><use transform="matrix(0.08024691358024691,0,0,0.08024691358024691,91.32098765432096,0)" xlink:href="#H"/><use transform="matrix(0.08024691358024691,0,0,0.08024691358024691,107.37037037037035,0)" xlink:href="#L"/></g><path d="M9 0v-24l116-142H16v-24h144v24L44-24h123V0H9" id="ad"/><g id="n"><use transform="matrix(0.08024691358024691,0,0,0.08024691358024691,0,0)" xlink:href="#O"/><use transform="matrix(0.08024691358024691,0,0,0.08024691358024691,20.78395061728395,0)" xlink:href="#H"/><use transform="matrix(0.08024691358024691,0,0,0.08024691358024691,36.83333333333333,0)" xlink:href="#Q"/><use transform="matrix(0.08024691358024691,0,0,0.08024691358024691,52.8827160493827,0)" xlink:href="#U"/><use transform="matrix(0.08024691358024691,0,0,0.08024691358024691,68.93209876543209,0)" xlink:href="#I"/><use transform="matrix(0.08024691358024691,0,0,0.08024691358024691,75.2716049382716,0)" xlink:href="#Y"/><use transform="matrix(0.08024691358024691,0,0,0.08024691358024691,91.32098765432096,0)" xlink:href="#L"/><use transform="matrix(0.08024691358024691,0,0,0.08024691358024691,100.87037037037035,0)" xlink:href="#M"/><use transform="matrix(0.08024691358024691,0,0,0.08024691358024691,107.20987654320986,0)" xlink:href="#ad"/><use transform="matrix(0.08024691358024691,0,0,0.08024691358024691,121.6543209876543,0)" xlink:href="#H"/><use transform="matrix(0.08024691358024691,0,0,0.08024691358024691,137.7037037037037,0)" xlink:href="#L"/></g><g id="o"><use transform="matrix(0.08024691358024691,0,0,0.08024691358024691,0,0)" xlink:href="#O"/><use transform="matrix(0.08024691358024691,0,0,0.08024691358024691,20.78395061728395,0)" xlink:href="#H"/><use transform="matrix(0.08024691358024691,0,0,0.08024691358024691,36.83333333333333,0)" xlink:href="#aa"/><use transform="matrix(0.08024691358024691,0,0,0.08024691358024691,43.172839506172835,0)" xlink:href="#H"/><use transform="matrix(0.08024691358024691,0,0,0.08024691358024691,59.22222222222221,0)" xlink:href="#N"/><use transform="matrix(0.08024691358024691,0,0,0.08024691358024691,73.66666666666666,0)" xlink:href="#K"/></g><path d="M140-251c81 0 123 46 123 126C263-46 219 4 140 4 59 4 17-45 17-125s42-126 123-126zm0 227c63 0 89-41 89-101s-29-99-89-99c-61 0-89 39-89 99S79-25 140-24" id="ae"/><g id="p"><use transform="matrix(0.08024691358024691,0,0,0.08024691358024691,0,0)" xlink:href="#ae"/><use transform="matrix(0.08024691358024691,0,0,0.08024691358024691,22.469135802469136,0)" xlink:href="#W"/><use transform="matrix(0.08024691358024691,0,0,0.08024691358024691,38.51851851851852,0)" xlink:href="#K"/><use transform="matrix(0.08024691358024691,0,0,0.08024691358024691,46.54320987654321,0)" xlink:href="#M"/><use transform="matrix(0.08024691358024691,0,0,0.08024691358024691,52.882716049382715,0)" xlink:href="#F"/><use transform="matrix(0.08024691358024691,0,0,0.08024691358024691,68.9320987654321,0)" xlink:href="#S"/></g><path d="M101-234c-31-9-42 10-38 44h38v23H63V0H32v-167H5v-23h27c-7-52 17-82 69-68v24" id="af"/><g id="q"><use transform="matrix(0.08024691358024691,0,0,0.08024691358024691,0,0)" xlink:href="#z"/><use transform="matrix(0.08024691358024691,0,0,0.08024691358024691,20.78395061728395,0)" xlink:href="#I"/><use transform="matrix(0.08024691358024691,0,0,0.08024691358024691,27.123456790123456,0)" xlink:href="#Y"/><use transform="matrix(0.08024691358024691,0,0,0.08024691358024691,43.172839506172835,0)" xlink:href="#J"/><use transform="matrix(0.08024691358024691,0,0,0.08024691358024691,57.61728395061728,0)" xlink:href="#J"/><use transform="matrix(0.08024691358024691,0,0,0.08024691358024691,72.06172839506172,0)" xlink:href="#M"/><use transform="matrix(0.08024691358024691,0,0,0.08024691358024691,78.40123456790123,0)" xlink:href="#af"/><use transform="matrix(0.08024691358024691,0,0,0.08024691358024691,86.42592592592592,0)" xlink:href="#M"/><use transform="matrix(0.08024691358024691,0,0,0.08024691358024691,92.76543209876543,0)" xlink:href="#H"/><use transform="matrix(0.08024691358024691,0,0,0.08024691358024691,108.81481481481481,0)" xlink:href="#L"/></g><g id="r"><use transform="matrix(0.08024691358024691,0,0,0.08024691358024691,0,0)" xlink:href="#O"/><use transform="matrix(0.08024691358024691,0,0,0.08024691358024691,20.78395061728395,0)" xlink:href="#H"/><use transform="matrix(0.08024691358024691,0,0,0.08024691358024691,36.83333333333333,0)" xlink:href="#J"/><use transform="matrix(0.08024691358024691,0,0,0.08024691358024691,51.27777777777777,0)" xlink:href="#U"/><use transform="matrix(0.08024691358024691,0,0,0.08024691358024691,67.32716049382715,0)" xlink:href="#I"/><use transform="matrix(0.08024691358024691,0,0,0.08024691358024691,73.66666666666666,0)" xlink:href="#K"/><use transform="matrix(0.08024691358024691,0,0,0.08024691358024691,81.69135802469135,0)" xlink:href="#J"/></g><path d="M30 0v-248h187v28H63v79h144v27H63v87h162V0H30" id="ag"/><g id="s"><use transform="matrix(0.08024691358024691,0,0,0.08024691358024691,0,0)" xlink:href="#ag"/><use transform="matrix(0.08024691358024691,0,0,0.08024691358024691,19.25925925925926,0)" xlink:href="#ac"/><use transform="matrix(0.08024691358024691,0,0,0.08024691358024691,33.7037037037037,0)" xlink:href="#Y"/><use transform="matrix(0.08024691358024691,0,0,0.08024691358024691,49.753086419753096,0)" xlink:href="#I"/><use transform="matrix(0.08024691358024691,0,0,0.08024691358024691,56.092592592592595,0)" xlink:href="#U"/><use transform="matrix(0.08024691358024691,0,0,0.08024691358024691,72.14197530864197,0)" xlink:href="#Y"/><use transform="matrix(0.08024691358024691,0,0,0.08024691358024691,88.19135802469135,0)" xlink:href="#K"/><use transform="matrix(0.08024691358024691,0,0,0.08024691358024691,96.21604938271605,0)" xlink:href="#M"/><use transform="matrix(0.08024691358024691,0,0,0.08024691358024691,102.55555555555554,0)" xlink:href="#F"/><use transform="matrix(0.08024691358024691,0,0,0.08024691358024691,118.60493827160494,0)" xlink:href="#S"/></g><g id="t"><use transform="matrix(0.08024691358024691,0,0,0.08024691358024691,0,0)" xlink:href="#Y"/><use transform="matrix(0.08024691358024691,0,0,0.08024691358024691,16.049382716049383,0)" xlink:href="#S"/><use transform="matrix(0.08024691358024691,0,0,0.08024691358024691,32.098765432098766,0)" xlink:href="#G"/></g><g id="u"><use transform="matrix(0.08024691358024691,0,0,0.08024691358024691,0,0)" xlink:href="#D"/><use transform="matrix(0.08024691358024691,0,0,0.08024691358024691,8.024691358024691,0)" xlink:href="#S"/><use transform="matrix(0.08024691358024691,0,0,0.08024691358024691,24.074074074074076,0)" xlink:href="#K"/><use transform="matrix(0.08024691358024691,0,0,0.08024691358024691,32.098765432098766,0)" xlink:href="#H"/><use transform="matrix(0.08024691358024691,0,0,0.08024691358024691,48.14814814814815,0)" xlink:href="#L"/><use transform="matrix(0.08024691358024691,0,0,0.08024691358024691,57.697530864197525,0)" xlink:href="#W"/><use transform="matrix(0.08024691358024691,0,0,0.08024691358024691,73.74691358024691,0)" xlink:href="#L"/><use transform="matrix(0.08024691358024691,0,0,0.08024691358024691,83.29629629629629,0)" xlink:href="#H"/><use transform="matrix(0.08024691358024691,0,0,0.08024691358024691,99.34567901234567,0)" xlink:href="#K"/><use transform="matrix(0.08024691358024691,0,0,0.08024691358024691,107.37037037037037,0)" xlink:href="#Y"/><use transform="matrix(0.08024691358024691,0,0,0.08024691358024691,123.41975308641975,0)" xlink:href="#K"/><use transform="matrix(0.08024691358024691,0,0,0.08024691358024691,131.44444444444443,0)" xlink:href="#M"/><use transform="matrix(0.08024691358024691,0,0,0.08024691358024691,137.78395061728392,0)" xlink:href="#F"/><use transform="matrix(0.08024691358024691,0,0,0.08024691358024691,153.83333333333331,0)" xlink:href="#S"/></g><path fill="#3a414a" d="M240 0l2-218c-23 76-54 145-80 218h-23L58-218 59 0H30v-248h44l77 211c21-75 51-140 76-211h43V0h-30" id="ah"/><path fill="#3a414a" d="M24-231v-30h32v30H24zM24 0v-190h32V0H24" id="ai"/><path fill="#3a414a" d="M59-47c-2 24 18 29 38 22v24C64 9 27 4 27-40v-127H5v-23h24l9-43h21v43h35v23H59v120" id="aj"/><path fill="#3a414a" d="M177-190C167-65 218 103 67 71c-23-6-38-20-44-43l32-5c15 47 100 32 89-28v-30C133-14 115 1 83 1 29 1 15-40 15-95c0-56 16-97 71-98 29-1 48 16 59 35 1-10 0-23 2-32h30zM94-22c36 0 50-32 50-73 0-42-14-75-50-75-39 0-46 34-46 75s6 73 46 73" id="ak"/><path fill="#3a414a" d="M141-36C126-15 110 5 73 4 37 3 15-17 15-53c-1-64 63-63 125-63 3-35-9-54-41-54-24 1-41 7-42 31l-33-3c5-37 33-52 76-52 45 0 72 20 72 64v82c-1 20 7 32 28 27v20c-31 9-61-2-59-35zM48-53c0 20 12 33 32 33 41-3 63-29 60-74-43 2-92-5-92 41" id="al"/><path fill="#3a414a" d="M100-194c62-1 85 37 85 99 1 63-27 99-86 99S16-35 15-95c0-66 28-99 85-99zM99-20c44 1 53-31 53-75 0-43-8-75-51-75s-53 32-53 75 10 74 51 75" id="am"/><path fill="#3a414a" d="M117-194c89-4 53 116 60 194h-32v-121c0-31-8-49-39-48C34-167 62-67 57 0H25l-1-190h30c1 10-1 24 2 32 11-22 29-35 61-36" id="an"/><g id="v"><use transform="matrix(0.07407407407407407,0,0,0.07407407407407407,0,0)" xlink:href="#ah"/><use transform="matrix(0.07407407407407407,0,0,0.07407407407407407,22.148148148148145,0)" xlink:href="#ai"/><use transform="matrix(0.07407407407407407,0,0,0.07407407407407407,28,0)" xlink:href="#aj"/><use transform="matrix(0.07407407407407407,0,0,0.07407407407407407,35.407407407407405,0)" xlink:href="#ai"/><use transform="matrix(0.07407407407407407,0,0,0.07407407407407407,41.259259259259245,0)" xlink:href="#ak"/><use transform="matrix(0.07407407407407407,0,0,0.07407407407407407,56.07407407407406,0)" xlink:href="#al"/><use transform="matrix(0.07407407407407407,0,0,0.07407407407407407,70.88888888888887,0)" xlink:href="#aj"/><use transform="matrix(0.07407407407407407,0,0,0.07407407407407407,78.29629629629628,0)" xlink:href="#ai"/><use transform="matrix(0.07407407407407407,0,0,0.07407407407407407,84.14814814814812,0)" xlink:href="#am"/><use transform="matrix(0.07407407407407407,0,0,0.07407407407407407,98.96296296296295,0)" xlink:href="#an"/></g><path fill="#3a414a" d="M127-220V0H93v-220H8v-28h204v28h-85" id="ao"/><path fill="#3a414a" d="M100-194c63 0 86 42 84 106H49c0 40 14 67 53 68 26 1 43-12 49-29l28 8c-11 28-37 45-77 45C44 4 14-33 15-96c1-61 26-98 85-98zm52 81c6-60-76-77-97-28-3 7-6 17-6 28h103" id="ap"/><path fill="#3a414a" d="M96-169c-40 0-48 33-48 73s9 75 48 75c24 0 41-14 43-38l32 2c-6 37-31 61-74 61-59 0-76-41-82-99-10-93 101-131 147-64 4 7 5 14 7 22l-32 3c-4-21-16-35-41-35" id="aq"/><path fill="#3a414a" d="M106-169C34-169 62-67 57 0H25v-261h32l-1 103c12-21 28-36 61-36 89 0 53 116 60 194h-32v-121c2-32-8-49-39-48" id="ar"/><path fill="#3a414a" d="M145-31C134-9 116 4 85 4 32 4 16-35 15-94c0-59 17-99 70-100 32-1 48 14 60 33 0-11-1-24 2-32h30l-1 268h-32zM93-21c41 0 51-33 51-76s-8-73-50-73c-40 0-46 35-46 75s5 74 45 74" id="as"/><path fill="#3a414a" d="M84 4C-5 8 30-112 23-190h32v120c0 31 7 50 39 49 72-2 45-101 50-169h31l1 190h-30c-1-10 1-25-2-33-11 22-28 36-60 37" id="at"/><path fill="#3a414a" d="M135-143c-3-34-86-38-87 0 15 53 115 12 119 90S17 21 10-45l28-5c4 36 97 45 98 0-10-56-113-15-118-90-4-57 82-63 122-42 12 7 21 19 24 35" id="au"/><g id="w"><use transform="matrix(0.07407407407407407,0,0,0.07407407407407407,0,0)" xlink:href="#ao"/><use transform="matrix(0.07407407407407407,0,0,0.07407407407407407,13.259259259259258,0)" xlink:href="#ap"/><use transform="matrix(0.07407407407407407,0,0,0.07407407407407407,28.074074074074073,0)" xlink:href="#aq"/><use transform="matrix(0.07407407407407407,0,0,0.07407407407407407,41.407407407407405,0)" xlink:href="#ar"/><use transform="matrix(0.07407407407407407,0,0,0.07407407407407407,56.22222222222221,0)" xlink:href="#an"/><use transform="matrix(0.07407407407407407,0,0,0.07407407407407407,71.03703703703702,0)" xlink:href="#ai"/><use transform="matrix(0.07407407407407407,0,0,0.07407407407407407,76.88888888888887,0)" xlink:href="#as"/><use transform="matrix(0.07407407407407407,0,0,0.07407407407407407,91.70370370370368,0)" xlink:href="#at"/><use transform="matrix(0.07407407407407407,0,0,0.07407407407407407,106.51851851851849,0)" xlink:href="#ap"/><use transform="matrix(0.07407407407407407,0,0,0.07407407407407407,121.33333333333329,0)" xlink:href="#au"/></g><path d="M30-248c118-7 216 8 213 122C240-48 200 0 122 0H30v-248zM63-27c89 8 146-16 146-99s-60-101-146-95v194" id="av"/><g id="x"><use transform="matrix(0.08024691358024691,0,0,0.08024691358024691,0,0)" xlink:href="#av"/><use transform="matrix(0.08024691358024691,0,0,0.08024691358024691,20.78395061728395,0)" xlink:href="#Y"/><use transform="matrix(0.08024691358024691,0,0,0.08024691358024691,36.83333333333333,0)" xlink:href="#K"/><use transform="matrix(0.08024691358024691,0,0,0.08024691358024691,44.858024691358025,0)" xlink:href="#Y"/><use transform="matrix(0.08024691358024691,0,0,0.08024691358024691,60.907407407407405,0)" xlink:href="#J"/><use transform="matrix(0.08024691358024691,0,0,0.08024691358024691,75.35185185185185,0)" xlink:href="#H"/><use transform="matrix(0.08024691358024691,0,0,0.08024691358024691,91.40123456790123,0)" xlink:href="#K"/></g></defs></g></svg>